<?xml version="1.0" encoding="utf-8"?>
<!-- Generator: Adobe Illustrator 24.1.3, SVG Export Plug-In . SVG Version: 6.00 Build 0)  -->
<svg version="1.1" id="Layer_1" xmlns="http://www.w3.org/2000/svg" xmlns:xlink="http://www.w3.org/1999/xlink" x="0px" y="0px"
	 viewBox="0 0 125 95" style="enable-background:new 0 0 125 95;" xml:space="preserve">
<style type="text/css">
	.st0{fill:#FCEE21;}
	.st1{opacity:0.7;}
	.st2{fill:#FFFFFF;}
</style>
<g>
	<g>
		<g>
			<g>
				<path class="st0" d="M38,64.2c0.4-1.3,0.7-2.6,1.2-3.9c2.7-8.1,5.3-16.2,8-24.3c0.2-0.6,0.4-0.8,1.1-0.8c4.3,0,8.6,0,12.8,0
					c0.6,0,0.8,0.2,1,0.7c2.9,8.6,5.8,17.2,8.6,25.8c0.1,0.2,0.1,0.4,0.3,0.5c0-9,0-18,0-27c0.3,0,0.6,0,0.8,0
					c5.9,0,11.7-0.1,17.6,0c3.3,0,6.2,1.1,8.3,3.9c3.3,4.4,1.7,10.5-3.4,12.6c-0.9,0.4-1.9,0.7-3,1.1c0.7,0.8,1.3,1.7,2,2.5
					c0.1,0.1,0.4,0.2,0.6,0.2c4.7,0,9.4,0,14.1,0c0.3,0,0.6,0,0.9-0.1c0.4-0.2,1-0.4,1.1-0.7c0.1-0.3-0.2-0.9-0.5-1.2
					c-1.3-1.4-2.8-2.7-4-4.1c-1.5-1.7-2.7-3.7-3.1-6c-0.3-1.9,0-3.7,1-5.4c1.1-1.8,2.8-2.7,4.8-2.7c5.3-0.1,10.6,0,15.9,0
					c0,2.8,0,5.7,0,8.5c-2.3,0-4.6,0-6.9,0c-0.6,0-1.2,0.1-1.8,0.3c-0.7,0.2-0.8,0.6-0.4,1.2c0.3,0.4,0.7,0.8,1.1,1.2
					c0.7,0.7,1.4,1.2,2,1.9c2.1,2.2,3.9,4.6,4.4,7.8c0.6,3.7-1.1,6.5-4.7,7.6c-0.5,0.1-1,0.3-1.5,0.4c-8.6,0-17.1,0-25.7,0
					c-3-3.1-6-6.3-9-9.4c-0.1,0-0.1,0.1-0.2,0.1c0,3.1,0,6.2,0,9.3c-6.9,0-13.9,0-20.8,0c-0.6-1.7-1.3-3.5-1.9-5.3
					c-2.7,0-5.4,0-8.2,0c-0.2,0-0.4,0.3-0.5,0.5c-0.6,1.6-1.1,3.2-1.7,4.7C44.8,64.2,41.4,64.2,38,64.2z M81.4,47.7
					c0.3,0,0.6,0,0.9,0c1.9,0,3.9,0,5.8,0c1.8,0,2.5-0.7,2.5-2.6c0-0.3,0-0.6-0.1-0.9c-0.2-1.1-1.1-1.8-2.2-1.8c-1.8,0-3.6,0-5.4,0
					c-0.5,0-1,0-1.5,0C81.4,44.3,81.4,46,81.4,47.7z M50.5,53c2.7,0,5.2,0,7.8,0c-1.2-3.7-2.5-7.4-3.8-11.2
					C53.2,45.6,51.9,49.3,50.5,53z"/>
				<path class="st0" d="M9.5,64.2c-1-3.2-1.9-6.4-2.9-9.6C4.8,48.7,3,42.9,1.3,37.1C1.1,36.6,1.1,36,1,35.3c0.3,0,0.6-0.1,0.8-0.1
					c2.5,0,5.1,0,7.6,0c0.6,0,0.8,0.2,1,0.7c1.1,3.6,2.3,7.2,3.4,10.9c0.1,0.2,0.1,0.4,0.3,0.8c0.5-1.7,0.9-3.2,1.3-4.8
					c0.6-2.3,1.3-4.6,1.9-7c0.1-0.5,0.3-0.7,0.8-0.6c2.4,0,4.9,0,7.3,0c0.6,0,0.8,0.2,1,0.7c1.1,3.5,2.3,7.1,3.4,10.6
					c0.1,0.2,0.2,0.5,0.4,0.7c0.9-4,1.7-8,2.6-12c3.2,0,6.2,0,9.4,0C39.8,45,37.4,54.6,35,64.2c-3.1,0-6.2,0-9.3,0
					c-0.1-0.3-0.2-0.6-0.3-0.9c-0.8-2.6-1.6-5.2-2.4-7.9c-0.3-1.1-0.6-2.1-1-3.4c-0.1,0.3-0.2,0.5-0.2,0.6c-0.5,2.1-1,4.2-1.6,6.2
					c-0.4,1.7-0.9,3.5-1.4,5.2C15.7,64.2,12.6,64.2,9.5,64.2z"/>
			</g>
		</g>
		<g>
			<g>
				<path class="st0" d="M123.9,29.5c-0.3,0-0.6-0.1-0.9-0.1c-5.4,0-10.8,0-16.3,0c-0.7,0-1.1-0.2-1.5-0.7c-2.6-2.7-5.2-5.5-7.9-8.2
					c-0.2-0.2-0.3-0.4-0.4-0.5c-0.1,0-0.1,0.1-0.2,0.1c0,3,0,6.1,0,9.2c-0.3,0-0.6,0.1-0.8,0.1c-6.5,0-13,0-19.4,0
					c-0.6,0-0.8-0.2-1-0.8c-0.4-1.3-0.9-2.6-1.4-4c-0.1-0.4-0.3-0.5-0.7-0.5c-2.5,0-5,0-7.5,0c-0.5,0-0.6,0.2-0.7,0.6
					c-0.5,1.4-0.9,2.7-1.4,4.1c-0.1,0.2-0.3,0.5-0.5,0.5c-3.3,0-6.6,0-9.9,0c0-0.2,0-0.4,0.1-0.6c3-9.3,6.1-18.5,9.1-27.8
					c0.1-0.2,0.4-0.5,0.6-0.5c4.6,0,9.2,0,13.9,0c3,9.1,6.1,18.1,9.1,27.1c0,0,0.1,0,0.1,0c0-9,0-18,0-27.1c0.2,0,0.4-0.1,0.6-0.1
					c6,0,11.9-0.1,17.9,0c3.7,0.1,7.1,1.4,8.8,4.9c2,4.2,1.3,9.2-3.6,11.4c-1.1,0.5-2.2,0.8-3.4,1.3c0.7,0.8,1.3,1.7,2,2.5
					c0.1,0.1,0.5,0.1,0.7,0.1c4.9,0,9.7,0,14.6,0C123.9,23.7,123.9,26.6,123.9,29.5z M96.8,13.1c2.5,0,5,0,7.4,0
					c0.9,0,1.5-0.6,1.6-1.4c0.1-0.7,0.1-1.5-0.1-2.2c-0.2-1-1-1.6-2.1-1.6c-2.1,0-4.2,0-6.4,0c-0.2,0-0.3,0.1-0.5,0.1
					C96.8,9.6,96.8,11.3,96.8,13.1z M65.8,18.3c2.7,0,5.2,0,7.8,0c-1.2-3.7-2.5-7.4-3.8-11.3C68.5,10.9,67.2,14.6,65.8,18.3z"/>
				<path class="st0" d="M57.9,0.6c0,2.9,0,5.7,0,8.6c-3,0-6,0-9.1,0c0,6.8,0,13.5,0,20.2c-3.2,0-6.2,0-9.4,0c0-6.7,0-13.4,0-20.2
					c-0.4,0-0.6,0-0.9,0c-3.8,0-7.6,0-11.4,0c-0.6,0-1.2,0.1-1.8,0.2c-0.7,0.2-0.8,0.6-0.4,1.2c0.3,0.5,0.8,0.9,1.2,1.3
					c2.2,1.9,4.1,4,5.4,6.6c0.7,1.5,1.1,3.1,1,4.8c-0.1,2.5-1.3,4.4-3.7,5.3c-1.1,0.4-2.4,0.7-3.6,0.8c-7.7,0.1-15.4,0-23.1,0
					c-0.3,0-0.7,0-1,0c0-2.9,0-5.7,0-8.6c0.3,0,0.6,0,0.8,0c5.2,0,10.4,0,15.6,0c0.5,0,1.1-0.1,1.6-0.2c0.9-0.2,1.2-0.8,0.6-1.5
					c-0.4-0.5-0.8-0.9-1.3-1.3c-2-1.8-3.8-3.7-5-6.1c-1.2-2.3-1.6-4.6-0.7-7.1c0.8-2.4,2.6-3.9,5.2-4.1c0.4,0,0.8,0,1.2,0
					c12.7,0,25.3,0,38,0C57.3,0.6,57.6,0.6,57.9,0.6z"/>
			</g>
		</g>
		<g class="st1">
			<g>
				<path class="st2" d="M40.7,85.1c0-4.8-7.2-2.5-7.2-7.8c0-3.2,2.6-4,4.6-4c1.6,0,3.7,0.5,3.7,1.3c0,0.3-0.2,0.8-0.6,0.8
					c-0.4,0-1.1-0.8-3.1-0.8c-1.6,0-3.2,0.6-3.2,2.5c0,4.1,7.2,1.8,7.2,7.8c0,3.1-1.9,4.5-4.6,4.5c-2.8,0-4.5-1.6-4.5-2.4
					c0-0.3,0.3-0.8,0.7-0.8c0.6,0,1,1.8,3.7,1.8C39.4,88.1,40.7,87,40.7,85.1z"/>
				<path class="st2" d="M45.3,89.3c-0.3,0-0.7-0.2-0.7-0.6V73.9c0-0.4,0.3-0.5,0.7-0.5c0.3,0,0.7,0.2,0.7,0.5v14.1h6.2
					c0.3,0,0.5,0.3,0.5,0.7c0,0.3-0.2,0.7-0.5,0.7H45.3z"/>
				<path class="st2" d="M54.8,73.9c0-0.4,0.3-0.5,0.7-0.5c0.3,0,0.7,0.2,0.7,0.5v14.8c0,0.4-0.4,0.6-0.7,0.6
					c-0.4,0-0.7-0.2-0.7-0.6V73.9z"/>
				<path class="st2" d="M64,73.3c2.6,0,4.6,1.3,4.6,4.6v6.6c0,3.4-2,4.7-4.6,4.7h-3.9c-0.4,0-0.7-0.3-0.7-0.5V73.9
					c0-0.3,0.3-0.5,0.7-0.5H64z M61,74.7v13.3H64c1.9,0,3.1-1.1,3.1-3.3V78c0-2.3-1.2-3.3-3.1-3.3H61z"/>
				<path class="st2" d="M73.2,80.7h3.4c0.3,0,0.5,0.3,0.5,0.7c0,0.3-0.2,0.6-0.5,0.6h-3.4v6h7c0.3,0,0.5,0.3,0.5,0.7
					c0,0.3-0.2,0.7-0.5,0.7h-7.8c-0.3,0-0.7-0.2-0.7-0.6V73.9c0-0.4,0.3-0.5,0.7-0.5h7.8c0.4,0,0.5,0.3,0.5,0.6
					c0,0.4-0.2,0.7-0.5,0.7h-7V80.7z"/>
				<path class="st2" d="M82.8,73.9c0-0.3,0.2-0.5,0.5-0.5h3.9c2.6,0,4.7,1,4.7,4.3c0,2.7-1.5,3.9-3.4,4.2l3.4,6.5
					c0.1,0.1,0.1,0.2,0.1,0.3c0,0.4-0.4,0.7-0.8,0.7c-0.3,0-0.6-0.4-0.8-0.8L87,82h-2.8v6.7c0,0.4-0.4,0.6-0.7,0.6
					c-0.4,0-0.7-0.2-0.7-0.6V73.9z M84.3,74.7v6.1h3c1.9,0,3.3-0.9,3.3-3.1c0-2.2-1.3-3-3.3-3H84.3z"/>
			</g>
		</g>
	</g>
</g>
</svg>
